<svg width="148" height="42" fill="none" xmlns="http://www.w3.org/2000/svg"><g clip-path="url(#clip0)"><path d="M0 21A21 21 0 1021 0v21H0z" fill="#1ECE7A"/><path d="M31.563 21a10.563 10.563 0 00-21.125 0h21.125z" fill="#fff"/></g><path d="M60.07 19.602h3.242c-.046-2.852-2.39-4.82-5.953-4.82-3.507 0-6.078 1.937-6.062 4.843-.008 2.36 1.656 3.71 4.36 4.36l1.741.437c1.743.422 2.711.922 2.72 2-.009 1.172-1.118 1.969-2.837 1.969-1.758 0-3.023-.813-3.133-2.414h-3.273c.086 3.46 2.563 5.25 6.445 5.25 3.907 0 6.203-1.868 6.211-4.797-.008-2.664-2.015-4.078-4.797-4.703l-1.437-.344c-1.39-.32-2.555-.836-2.531-1.985 0-1.03.914-1.789 2.57-1.789 1.617 0 2.61.735 2.734 1.993zM65.744 31h3.328V19h-3.328v12zm1.672-13.547c.992 0 1.805-.758 1.805-1.687 0-.922-.813-1.68-1.805-1.68-.984 0-1.797.758-1.797 1.68 0 .93.813 1.687 1.797 1.687zM71.738 35.5h3.328v-6.422h.102c.46 1 1.469 2.117 3.406 2.117 2.735 0 4.867-2.164 4.867-6.18 0-4.124-2.226-6.171-4.859-6.171-2.008 0-2.969 1.195-3.414 2.172h-.149V19h-3.28v16.5zM74.996 25c0-2.14.906-3.508 2.523-3.508 1.649 0 2.524 1.43 2.524 3.508 0 2.094-.89 3.547-2.524 3.547-1.601 0-2.523-1.406-2.523-3.547zm13.992-.938c.008-1.546.953-2.453 2.313-2.453 1.351 0 2.148.868 2.14 2.344V31h3.328v-7.64c.008-2.813-1.648-4.516-4.148-4.516-1.82 0-3.039.86-3.586 2.273h-.14V15H85.66v16h3.328v-6.938zm15.823 7.172c3.64 0 5.906-2.492 5.906-6.187 0-3.719-2.266-6.203-5.906-6.203-3.641 0-5.907 2.484-5.907 6.203 0 3.695 2.266 6.187 5.907 6.187zm.015-2.578c-1.68 0-2.539-1.539-2.539-3.633 0-2.093.859-3.64 2.539-3.64 1.649 0 2.508 1.547 2.508 3.64 0 2.094-.859 3.633-2.508 3.633zM112.881 31h3.328v-7.203c0-1.328.844-2.211 1.953-2.211 1.094 0 1.828.75 1.828 1.93V31h3.227v-7.328c0-1.242.711-2.086 1.922-2.086 1.062 0 1.859.664 1.859 2V31h3.32v-8.07c0-2.602-1.547-4.086-3.781-4.086-1.758 0-3.125.898-3.617 2.273h-.125c-.383-1.39-1.609-2.273-3.258-2.273-1.617 0-2.844.86-3.344 2.273h-.14V19h-3.172v12zm25.535.234c2.969 0 4.969-1.445 5.438-3.672l-3.079-.203c-.336.914-1.195 1.391-2.304 1.391-1.664 0-2.719-1.102-2.719-2.89v-.008h8.172v-.915c0-4.078-2.469-6.093-5.641-6.093-3.531 0-5.82 2.508-5.82 6.21 0 3.805 2.258 6.18 5.953 6.18zm-2.664-7.445c.07-1.367 1.109-2.46 2.586-2.46 1.445 0 2.445 1.03 2.453 2.46h-5.039z" fill="#fff"/><defs><clipPath id="clip0"><path fill="#fff" d="M0 0h42v42H0z"/></clipPath></defs></svg>